<svg xmlns="http://www.w3.org/2000/svg"><symbol id="advantage-1" viewBox="0 0 94.9 94.2">
    <g fill="#826550" class="svg-advantage">
        <path d="M90.3 28.4a47.2 47.2 0 0 0-8.5-13.1l-2 3.8a43.2 43.2 0 0 1 6.4 10zM90 43.6c.1 1.2.2 2.3.2 3.5a43.1 43.1 0 0 1-43.1 43.1h-2.4a7.5 7.5 0 0 1 .2 1.8 6.6 6.6 0 0 1-.4 2.2H47a47 47 0 0 0 46.7-53.3 38.3 38.3 0 0 1-3.7 2.7zM4 47.1A43.1 43.1 0 0 1 68.7 9.8L72 7.2a47.1 47.1 0 1 0-42.3 83.6 18.2 18.2 0 0 1-.6-4.6A43.1 43.1 0 0 1 4 47.1z"/>
        <path d="M38.8 84.9c7.7-2.7 16.3-9.7 14.5-19.8-.9-5.1-4.5-5-7.3-9.3 14.4-12 24.2-28.7 33-46.3h-2c-7.4 5.7-21.9 17-28.4 26.4-2.6 3.8-4.6 9.3-7.3 13.9-4.5 7.7-15.1 21.2-6.6 31.1-1.4 4.6-1.2 12.4 4 12.6 3.3-1.7-1.3-4.6.1-8.6zm8.3-38.8a2.6 2.6 0 1 1-2.6 2.6 2.6 2.6 0 0 1 2.6-2.6zM36.8 75c-1.9-9 7-17 11.9-9.3.2 7.5-6.2 15.8-11.9 9.3z"/>
        <path d="M56 51.2c14-5.2 30.6-7.8 39-18.5-9.4 1.4-18.1 3.5-27.8 4.6-2.1 6.3-7 9.7-11.2 13.9zM12.3 40c-4.2 12.2 8.5 16 21.8 13.8 3.8-4.8 5.8-10 2-15.9-4.9-7.4-20.9-6.3-23.8 2.1zm5.3 7.3C12.5 36.4 30.5 36.2 32.2 42c2.1 7.6-9.1 8-14.6 5.2z"/>
    </g>
</symbol><symbol id="advantage-2" viewBox="0 0 94.2 88.6">
    <g fill="#826550" class="svg-advantage">
        <path d="M87.2 22.4l-1.7 5.2a43 43 0 0 1-13 54.2 12.8 12.8 0 0 1 3.1 2.7 47.1 47.1 0 0 0 11.6-62.1zM9.5 70.3h1.3A43.1 43.1 0 0 1 66 8.4a22.3 22.3 0 0 1 2.4-3.3A47.1 47.1 0 0 0 6.2 70.5h3.3z"/>
        <path d="M53.5 82c.4-6.1-.9-14 .7-19.1 4.5-.1 9.6.4 13.2-.7 8.2-14.8 12-34 18.4-50.6V9c-.8-3-3.9-3.7-6.7-4.6h-.7C67.8 7.9 66.5 20.5 64 32.1c-15.8-4.2-32.3-.1-32.9 15.1-4.5.1-8 1.2-9.9 3.9-.6 6.7 1.6 10.7 6.6 11.8q-1.9 8-7.2 12.5c-6.4.6-15.6-1.6-19.1 2V80c3.2 3.9 12.9 1.2 19.1 2 6.6-3.9 8.5-12.6 11.8-19.7 4.7.4 10.9-.8 14.5.7v19.7c-7.8.5-15.4 1.2-19.1 5.9h44.7c-3.2-5.3-12.4-4.6-19-6.6zM37.7 47.2c.7-11.7 15.3-11.7 25.6-8.6.1 4.7-.5 10.2 1.3 13.2-7-.9-17-4.4-26.9-4.6z"/>
    </g>
</symbol><symbol id="advantage-3" viewBox="0 0 94.2 92">
    <g fill="#826550" class="svg-advantage">
        <circle cx="47.1" cy="17.3" r="9.1"/>
        <path d="M67.5 26.4H26.7a2.8 2.8 0 0 0-2.8 2.8v4.5a2.8 2.8 0 0 0 2.8 2.8h.8v45.4h-.8a2.8 2.8 0 0 0-2.8 2.8v4.5a2.8 2.8 0 0 0 2.8 2.8h40.8a2.8 2.8 0 0 0 2.8-2.8v-4.5a2.8 2.8 0 0 0-2.8-2.8h-.9V36.5h.8a2.8 2.8 0 0 0 2.8-2.8v-4.5a2.8 2.8 0 0 0-2.7-2.8zM33.7 36.5h13.2L33.7 49.7V36.5zm26.8 45.4H47l13.5-13.5v13.5zm0-28.7L33.7 80V64.9l26.8-26.8v15.1z"/>
        <path d="M47.1 0a47.1 47.1 0 0 0-28.2 84.8 7.8 7.8 0 0 1 1.2-4.1 43.1 43.1 0 1 1 54 0 7.8 7.8 0 0 1 1.2 4.1A47.1 47.1 0 0 0 47.1 0z"/>
    </g>
</symbol><symbol id="beard--axeman" viewBox="0 0 57.7 68.6">
    <path class="svg-beard" d="M51.6 22.2c.1-1.7.5-3.5.7-5.4.7-5.4 1.6-11.7-.1-16.8H52c-1.3 3.7-1.3 8.3-2.2 12.4a19.7 19.7 0 0 1-3.2 7.6 4.4 4.4 0 0 1-1.9 1.7c-.7-3.9-4.3-4.9-7.7-6.4s-4-2-6.1-2.2a10.8 10.8 0 0 0-2 .2 10.6 10.6 0 0 0-2-.2c-2.1.1-4 1.3-6.1 2.2s-7 2.4-7.7 6.4a4.4 4.4 0 0 1-1.9-1.8A19.7 19.7 0 0 1 8 12.3c-.9-4-.8-8.6-2.2-12.4h-.3C3.8 5 4.7 11.3 5.4 16.7c.2 1.9.6 3.7.7 5.4.8 11.1-7 23.1-6 28.9.9 7.5 8.4 9.4 14.2 12.4s8.3 5 13.3 5.2h2.6c5-.2 9-2.9 13.3-5.2s13.2-4.7 14.1-12.3c1-5.8-6.8-17.8-6-28.9zM28.9 26a35.9 35.9 0 0 1-7.2-.5c.7-2.1 4-1.6 7.1-1.6h.2c3 0 6.4-.5 7.1 1.6a36 36 0 0 1-7.2.5z" fill="#826550"/>
</symbol><symbol id="beard-admiral-1" viewBox="0 0 51.5 49.5">
    <path class="svg-beard" d="M50.8 0h-.2c-2.3 7.7-2.9 17.1-9.4 20.6-1.2-3.4-4.1-4.9-7.4-6.4s-4.5-2.6-6.6-2.6a2.2 2.2 0 0 0-1.5.3 2.2 2.2 0 0 0-1.5-.3c-2.1.1-4.5 1.7-6.6 2.6s-6.2 3-7.4 6.4C3.8 17 3.1 7.7.8 0H.6A14.5 14.5 0 0 0 0 2.4c0 1.9.5 21.5 1.9 28.4S8 41.6 12.7 44.6s8.5 4.8 13 4.8 9.7-2.8 13-4.8 9.6-7.5 10.8-13.8 1.9-26.5 1.9-28.4a14.5 14.5 0 0 0-.6-2.4zM36.9 28c-.2 1.6-1.7 3.4-3.4 3.5s-4.5-4.4-7.9-4.4-4.9 4.5-7.9 4.4-3.1-1.9-3.4-3.5a7.6 7.6 0 0 1 1.7-5.6c1.1-1.1 2.8-.9 4.7-1.2a8.6 8.6 0 0 0 4.9-1.9 8.6 8.6 0 0 0 4.9 1.9c1.9.3 3.6.1 4.7 1.2a7.6 7.6 0 0 1 1.7 5.6z" fill="#826550"/>
</symbol><symbol id="beard-boyar" viewBox="0 0 57 97.7">
    <path class="svg-beard" d="M51.1 15.3c-.4-5.5-.6-10.9-2.5-15.2-.8 0-1.5 7.3-2.3 10.9-1.5 7.1-3.7 8.3-4.4 8.3-.9-3.9-4.4-4.2-7.8-5.9a11.1 11.1 0 0 0-3.6-1.2 14.6 14.6 0 0 0-2 .1 14.4 14.4 0 0 0-2-.1 11.1 11.1 0 0 0-3.6 1.2c-3.4 1.6-6.9 2-7.8 5.9-.7 0-3-1.1-4.4-8.3C10 7.4 9.2.1 8.4.1 6.5 4.5 6.3 9.9 5.9 15.3 5 38.8 0 51.6 0 62.5c0 26.1 11.7 35.3 28.5 35.3S57 88.6 57 62.5c0-10.9-5-23.7-5.9-47.2zM34.4 25c-2.8 1.2-5.4-.7-5.9-.7h-.1c-.5 0-3.1 1.9-5.9.7-.8-3.6 2.4-4 5.9-3.9s6.8.3 6 3.9z" fill="#826550"/>
</symbol><symbol id="beard-polar" viewBox="0 0 62.4 78.5">
    <path class="svg-beard" d="M62.4 42c0-5.2-2.4-7.8-3.6-10a56 56 0 0 1-4.2-17.6C54.5 9.5 52.9 2 51.7 0c-.9 0-1.5 7.8-2.3 11.6-1.4 7-3.8 8.9-4.4 9-.8-2.8-4.1-7.4-13.7-7.7h-.2c-9.6.4-12.9 4.9-13.7 7.7-.7-.1-3-2-4.4-9C12.2 7.7 11.6 0 10.7 0 9.5 2 7.9 9.5 7.8 14.4A56.1 56.1 0 0 1 3.6 32C2.4 34.2 0 36.7 0 42s5.2 7.2 5.6 11.4c.1 1.2 0 2.3.1 3.4 2 17.5 17.9 21.7 25.4 21.7 7.6 0 23.4-4.2 25.4-21.7.2-1 0-2.1.1-3.4.6-4.2 5.8-7.6 5.8-11.4zM33.2 26.8a20.6 20.6 0 0 0-4.1 0c-1.7.3-5.8 1-5.8-1.1s6.7-2.3 7.8-2.3 7.8 1.2 7.8 2.3-3.9 1.4-5.7 1.1z" fill="#826550"/>
</symbol><symbol id="beard-wiseacre" viewBox="0 0 44.7 104.8">
    <path class="svg-beard" d="M43.4 0h-.1c-2.8 21.5-5.4 22.6-7 22.7s-3.6-1.8-4.9-2.5a15.9 15.9 0 0 0-9.1-2.6 15.9 15.9 0 0 0-9.1 2.5c-1.3.7-3.5 2.6-4.9 2.5s-4.1-1.2-7-22.7C-.8 12.1-.3 50.1 2.5 63.5 5.1 82 12.6 98.6 15.9 103.1c.7 1 3.5 1.6 6.4 1.6s5.7-.5 6.4-1.6C32 98.6 39.5 82 42.1 63.5 45 50.2 45.5 12.2 43.4 0zM22.3 28.1a100.2 100.2 0 0 0-10.1.5c1.1-1.8 9-3.2 10.1-3.4s9 1.7 10.1 3.4a100.2 100.2 0 0 0-10.1-.5z" fill="#826550"/>
</symbol><symbol id="clock" viewBox="0 0 141.7 139.5">
    <g fill="#fff" class="svg-clock">
        <path d="M71.8 21.5V1a1 1 0 0 0-2 0v20.5h2zM45.8 28.4l1.7-1L37.3 9.7a1 1 0 0 0-1.7 1zM10.5 34.7a1 1 0 0 0 .4 1.4l17.7 10.3 1-1.7-17.7-10.3a1 1 0 0 0-1.4.3zM106.4 8.5a1 1 0 0 0-1.4.4L94.2 27.5l1.7 1 10.8-18.6a1 1 0 0 0-.3-1.4zM131.8 35.7a1 1 0 1 0-1-1.7l-18.6 10.8 1 1.7zM22.5 69.8v-1H1a1 1 0 1 0 0 2h21.5v-1zM140.7 68.8h-21.6v2h21.5a1.001 1.001 0 1 0 .1-2zM130.8 103.4l-17.7-10.3-1 1.7 17.7 10.3h.5a1 1 0 0 0 .5-1.7zM9.9 103.9a1 1 0 0 0 .5 1.9h.5L29.5 95l-1-1.7zM95.9 111.1l-1.7 1 10.2 17.7a1 1 0 0 0 .9.5h.5a1 1 0 0 0 .4-1.4zM34.9 129.7a1 1 0 0 0 .4 1.4h.5a1 1 0 0 0 .9-.5L47.5 112l-1.7-1zM69.8 118.1v20.5a1 1 0 0 0 2 0v-20.5h-2zM104.7 51.9a1.5 1.5 0 1 0-1.5-2.6L74.8 65.7a5.7 5.7 0 0 0-7.9 0L46.6 53.9a1.5 1.5 0 0 0-1.5 2.6l20.3 11.8a5.7 5.7 0 1 0 11 0zM75.3 66.4zm.4.6zm-9.8 0zm.4-.6zm4.5 6.2a2.7 2.7 0 1 1 2.7-2.7 2.7 2.7 0 0 1-2.7 2.5z"/>
    </g>
</symbol><symbol id="service-beard" viewBox="0 0 22.1 21.2">
    <path class="svg-service" d="M21.8 0h-.1c-1 3.3-1.3 7.3-4 8.8-.5-1.4-1.8-2.1-3.2-2.7A9.5 9.5 0 0 0 11.7 5a.9.9 0 0 0-.6.1.9.9 0 0 0-.7-.1 9.5 9.5 0 0 0-2.8 1.1c-1.4.6-2.7 1.3-3.2 2.7C1.6 7.3 1.3 3.3.4 0H.3A6.3 6.3 0 0 0 0 1a110.5 110.5 0 0 0 .8 12.2c.5 2.7 2.6 4.6 4.6 5.9S9 21.2 11 21.2s4.2-1.2 5.6-2.1 4.1-3.2 4.6-5.9A110.3 110.3 0 0 0 22.1 1a6.1 6.1 0 0 0-.3-1zm-6 12a1.8 1.8 0 0 1-1.4 1.5c-1.3.1-1.9-1.9-3.4-1.9s-2.1 1.9-3.4 1.9A1.8 1.8 0 0 1 6.2 12a3.2 3.2 0 0 1 .7-2.4 3.5 3.5 0 0 1 2-.5 3.7 3.7 0 0 0 2.1-.8 3.7 3.7 0 0 0 2.1.8 3.5 3.5 0 0 1 2 .5 3.2 3.2 0 0 1 .7 2.4z" fill="#83654f"/>
</symbol><symbol id="service-haircut" viewBox="0 0 21 20">
    <path class="svg-service" d="M8 4a4 4 0 1 0-4 4 2.9 2.9 0 0 0 1.6-.4L8 10l-2.4 2.4A2.9 2.9 0 0 0 4 12a4 4 0 1 0 4 4 2.9 2.9 0 0 0-.4-1.6L10 12l7 7h4L7.6 5.6A2.9 2.9 0 0 0 8 4zM4 6a2 2 0 1 1 2-2 2 2 0 0 1-2 2zm0 12a2 2 0 1 1 2-2 2 2 0 0 1-2 2zm6-8.5a.5.5 0 1 1-.5.5.5.5 0 0 1 .5-.5zM21 1h-4l-6 6 2 2 8-8z" fill="#826550"/>
</symbol><symbol id="service-mustache" viewBox="0 0 45 12.9">
    <path class="svg-service" d="M22.5 8.2a10.5 10.5 0 0 0 8.8 4.7c7.1.3 13.7-5.2 13.7-7.3-2.8 2.5-7.4 2.7-10 1.7S31.9 2.8 29.2.9a5.1 5.1 0 0 0-5.7 0l-1 .8-1-.8a5.1 5.1 0 0 0-5.7 0c-2.8 2-2.1 4.9-5.9 6.4S2.8 8.1 0 5.6c0 2.1 6.5 7.6 13.7 7.3a10.5 10.5 0 0 0 8.8-4.7z" fill="#826550"/>
</symbol><symbol id="user-icon" viewBox="0 0 14.969 15">
    <path d="M6.837.227a1.577 1.577 0 0 0-.721.269 1.75 1.75 0 0 0-.786.046 1.83 1.83 0 0 0-1.18 1.619c-.04.394-.05 1.5-.023 2.1.08.356-.2.356-.2.356-.5-.033-.278 1.516-.278 1.516a.814.814 0 0 0 .722.866 3.173 3.173 0 0 0 1.286 1.526s0 .616.018 1.072c-.076-.037.26 1.165-2.062 1.5s-2.766 1.077-3.2 1.489-.421 2.41-.421 2.41L14.969 15s-.112-2-.549-2.417-.915-1.152-3.236-1.489c-2.257-.321-1.886-1.507-1.9-1.578 0-.179.028-.941.028-.941a3.91 3.91 0 0 0 1.145-1.61 1.322 1.322 0 0 0 .866-.8s.165-1.564-.364-1.556c0 0-.251.08-.171-.275a9.608 9.608 0 0 0 .014-1.86c-.041-.395.02-1.523-.822-1.681a5.162 5.162 0 0 0-.931-.041c-.281-.039-.615-.755-1.137-.755z"/>
</symbol><symbol id="user-pass-icon" viewBox="0 0 15 17">
    <path d="M13 5.451A5.5 5.5 0 0 0 7.389 0a5.366 5.366 0 0 0-5.453 5.453h-.63A1 1 0 0 0 .048 6.532v9.05A1.048 1.048 0 0 0 1.187 17h12.568A1.382 1.382 0 0 0 15 15.58V6.97a1.343 1.343 0 0 0-1.247-1.532zm-1.187-.013a4.284 4.284 0 0 0-8.564 0h8.564zM7.168 7.473A2.01 2.01 0 0 1 9.13 9.527a2.054 2.054 0 0 1-1.263 1.919c-.1.041.661 3.541.661 3.541l-2.64.019a20.682 20.682 0 0 0 .647-3.535 2.05 2.05 0 0 1-1.328-1.944 2.009 2.009 0 0 1 1.965-2.054z"/>
</symbol></svg>